HIERARCHY
ROOT joint_Root
{
	OFFSET 0.0 0.0 0.0
	CHANNELS 6 Xposition Yposition Zposition Zrotation Xrotation Yrotation 
	JOINT Hips
	{
		OFFSET -0.726466 93.3139 -2.00062
		CHANNELS 6 Xposition Yposition Zposition Zrotation Xrotation Yrotation 
		JOINT Spine
		{
			OFFSET 15.7357 0.0 0.0
			CHANNELS 6 Xposition Yposition Zposition Zrotation Xrotation Yrotation 
			JOINT Chest
			{
				OFFSET 8.98455 -0.406207 0.0
				CHANNELS 6 Xposition Yposition Zposition Zrotation Xrotation Yrotation 
				JOINT Neck
				{
					OFFSET 16.3773 0.0 0.0
					CHANNELS 6 Xposition Yposition Zposition Zrotation Xrotation Yrotation 
					JOINT Head
					{
						OFFSET 6.45672 0.0 0.0
						CHANNELS 6 Xposition Yposition Zposition Zrotation Xrotation Yrotation 
						End Site
						{
							OFFSET 0.0 0.0 0.0
						}
					}
				}
				JOINT Shoulder_L
				{
					OFFSET 12.9942 -0.242716 4.98039
					CHANNELS 6 Xposition Yposition Zposition Zrotation Xrotation Yrotation 
					JOINT UpperArm_L
					{
						OFFSET 5.34809 0.0 0.0
						CHANNELS 6 Xposition Yposition Zposition Zrotation Xrotation Yrotation 
						JOINT LowerArm_L
						{
							OFFSET 24.3286 1.87007e-05 0.0
							CHANNELS 6 Xposition Yposition Zposition Zrotation Xrotation Yrotation 
							JOINT Hand_L
							{
								OFFSET 22.2916 0.0 0.0
								CHANNELS 6 Xposition Yposition Zposition Zrotation Xrotation Yrotation 
								End Site
								{
									OFFSET 0.0 0.0 0.0
								}
							}
						}
					}
				}
				JOINT Shoulder_R
				{
					OFFSET 12.9945 -0.242716 -4.98039
					CHANNELS 6 Xposition Yposition Zposition Zrotation Xrotation Yrotation 
					JOINT UpperArm_R
					{
						OFFSET -5.34813 0.0 0.0
						CHANNELS 6 Xposition Yposition Zposition Zrotation Xrotation Yrotation 
						JOINT LowerArm_R
						{
							OFFSET -24.3289 0.000322201 0.0
							CHANNELS 6 Xposition Yposition Zposition Zrotation Xrotation Yrotation 
							JOINT Hand_R
							{
								OFFSET -22.2915 -0.000108084 0.0
								CHANNELS 6 Xposition Yposition Zposition Zrotation Xrotation Yrotation 
								End Site
								{
									OFFSET 0.0 0.0 0.0
								}
							}
						}
					}
				}
			}
		}
		JOINT UpperLeg_L
		{
			OFFSET -2.19248 -6.46944 0.0
			CHANNELS 6 Xposition Yposition Zposition Zrotation Xrotation Yrotation 
			JOINT LowerLeg_L
			{
				OFFSET 39.0811 0.0 -1.23785e-05
				CHANNELS 6 Xposition Yposition Zposition Zrotation Xrotation Yrotation 
				JOINT Foot_L
				{
					OFFSET 40.9854 0.0 -1.26872e-05
					CHANNELS 6 Xposition Yposition Zposition Zrotation Xrotation Yrotation 
					JOINT Toes_L
					{
						OFFSET 11.7543 0.0 0.0
						CHANNELS 6 Xposition Yposition Zposition Zrotation Xrotation Yrotation 
						End Site
						{
							OFFSET 0.0 0.0 0.0
						}
					}
				}
			}
		}
		JOINT UpperLeg_R
		{
			OFFSET -2.19251 6.46944 0.0
			CHANNELS 6 Xposition Yposition Zposition Zrotation Xrotation Yrotation 
			JOINT LowerLeg_R
			{
				OFFSET -39.0811 -0.00228153 -0.0401928
				CHANNELS 6 Xposition Yposition Zposition Zrotation Xrotation Yrotation 
				JOINT Foot_R
				{
					OFFSET -40.9854 0.0 0.0
					CHANNELS 6 Xposition Yposition Zposition Zrotation Xrotation Yrotation 
					JOINT Toes_R
					{
						OFFSET -11.7543 0.0 0.0
						CHANNELS 6 Xposition Yposition Zposition Zrotation Xrotation Yrotation 
						End Site
						{
							OFFSET 0.0 0.0 0.0
						}
					}
				}
			}
		}
	}
}
MOTION
Frames:	4
Frame Time:	0.0333333
0.000000 0.000000 0.000000 0.000000 0.000000 -0.000000 -4.314990 89.270100 502.541000 -85.594900 1.935340 179.053000 15.735700 0.000005 -0.000001 69.210700 83.026800 -67.152600 8.984550 -0.406207 -0.000000 5.381290 -4.981810 4.348020 16.377300 -0.000001 -0.000001 0.657944 -0.064254 -1.154890 6.456720 -0.000001 -0.000000 1.496310 2.684430 -2.029070 12.994200 -0.242716 4.980390 -89.114800 -2.922220 -73.138300 5.348090 -0.000007 -0.000001 -52.450400 22.594000 -44.389700 24.328600 0.000019 0.000005 -0.284168 -0.313307 -42.210500 22.291600 -0.000001 0.000005 14.136900 5.527780 -7.697480 12.994500 -0.242716 -4.980390 88.947400 3.147350 -71.497500 -5.348130 -0.000001 -0.000004 -65.004200 23.341200 -3.158320 -24.328900 0.000322 -0.000009 2.927860 10.880700 -15.165800 -22.291500 -0.000108 -0.000004 10.472400 5.315350 -0.362445 -2.192480 -6.469440 -0.000000 -175.981000 -6.535360 6.548320 39.081100 -0.000007 -0.000012 0.001038 -0.002676 21.193700 40.985400 -0.000006 -0.000013 5.697560 1.924870 -79.236200 11.754300 -0.000000 0.000003 -0.484968 -0.594760 -16.233700 -2.192510 6.469440 -0.000001 -170.914000 16.657200 152.806000 -39.081100 -0.002282 -0.040193 -0.032851 0.167700 12.176700 -40.985400 0.000008 0.000006 -4.339890 5.100790 -49.423900 -11.754300 -0.000006 -0.000006 -0.022666 -0.181633 -23.999300
0.000000 0.000000 0.000000 0.000000 0.000000 -0.000000 -3.682440 88.708500 499.171000 -85.516500 1.313550 178.664000 15.735700 0.000005 -0.000001 67.057300 83.134000 -64.850300 8.984550 -0.406207 -0.000000 5.005260 -5.395390 4.647560 16.377300 -0.000001 -0.000001 0.400858 -0.146012 -1.154900 6.456720 -0.000001 -0.000000 1.430710 2.784820 -2.175420 12.994200 -0.242716 4.980390 -89.177700 -2.749330 -73.341800 5.348090 -0.000007 -0.000001 -52.371500 22.060200 -44.199300 24.328600 0.000019 0.000005 -0.620371 -0.679240 -42.410000 22.291600 -0.000001 0.000005 14.404900 5.532620 -7.911070 12.994500 -0.242716 -4.980390 88.827000 3.491340 -71.415600 -5.348130 -0.000001 -0.000004 -64.429600 23.670400 -3.505240 -24.328900 0.000322 -0.000009 2.841250 11.432500 -14.062300 -22.291500 -0.000108 -0.000004 10.164900 5.309780 -0.203713 -2.192480 -6.469440 -0.000000 -174.745000 -7.054130 7.510220 39.081100 -0.000007 -0.000012 -0.001863 0.004465 22.644700 40.985400 -0.000006 -0.000013 4.848700 4.089660 -78.430400 11.754300 -0.000000 0.000003 -1.324720 -1.585790 -19.313700 -2.192510 6.469440 -0.000001 -168.846000 17.513300 150.398000 -39.081100 -0.002282 -0.040193 -0.074768 0.321039 13.673100 -40.985400 0.000008 0.000006 -2.389980 3.212450 -50.747300 -11.754300 -0.000006 -0.000006 -0.022341 -0.179924 -23.928800
0.000000 0.000000 0.000000 0.000000 0.000000 -0.000000 -2.818720 88.286500 495.297000 -84.821900 0.508083 178.322000 15.735700 0.000005 -0.000001 65.170100 83.245400 -62.579400 8.984550 -0.406207 -0.000000 4.648320 -5.733300 5.411880 16.377300 -0.000001 -0.000001 0.184006 -0.262640 -1.252900 6.456720 -0.000001 -0.000000 1.276280 2.729190 -2.311560 12.994200 -0.242716 4.980390 -89.283600 -2.422520 -73.519500 5.348090 -0.000007 -0.000001 -52.339100 22.607400 -43.044700 24.328600 0.000019 0.000005 -0.657673 -0.718725 -42.465000 22.291600 -0.000001 0.000005 14.410400 5.534810 -8.008340 12.994500 -0.242716 -4.980390 88.623400 4.073980 -71.312500 -5.348130 -0.000001 -0.000004 -63.882000 24.387600 -3.947940 -24.328900 0.000322 -0.000009 2.749650 12.107500 -12.902200 -22.291500 -0.000108 -0.000004 9.730680 5.306800 -0.118620 -2.192480 -6.469440 -0.000000 -172.930000 -6.577430 8.164630 39.081100 -0.000007 -0.000012 -0.009449 0.020532 24.712800 40.985400 -0.000006 -0.000013 4.079520 5.455160 -75.295900 11.754300 -0.000000 0.000003 -0.954189 -1.175230 -26.533600 -2.192510 6.469440 -0.000001 -167.167000 16.206900 148.976000 -39.081100 -0.002282 -0.040193 0.000277 0.009498 17.795400 -40.985400 0.000008 0.000006 7.405170 1.166510 -48.332100 -11.754300 -0.000006 -0.000006 -0.023897 -0.187992 -24.261900
0.000000 0.000000 0.000000 0.000000 0.000000 -0.000000 -1.843180 88.059300 490.883000 -83.819000 -0.740310 178.480000 15.735700 0.000005 -0.000001 63.505300 83.295700 -60.380400 8.984550 -0.406207 -0.000000 4.427740 -6.062870 6.482060 16.377300 -0.000001 -0.000001 -0.029005 -0.524331 -1.439080 6.456720 -0.000001 -0.000000 1.256270 2.616620 -2.712250 12.994200 -0.242716 4.980390 -89.476200 -1.784700 -73.639600 5.348090 -0.000007 -0.000001 -52.066300 24.632300 -41.224900 24.328600 0.000019 0.000005 -0.628913 -0.702531 -41.838300 22.291600 -0.000001 0.000005 14.160400 5.538150 -8.158880 12.994500 -0.242716 -4.980390 88.382400 4.708780 -71.016300 -5.348130 -0.000001 -0.000004 -63.692800 24.506400 -4.079070 -24.328900 0.000322 -0.000009 2.659750 12.579600 -12.045200 -22.291500 -0.000108 -0.000004 9.260500 5.298320 0.119484 -2.192480 -6.469440 -0.000000 -170.555000 -5.604730 8.806130 39.081100 -0.000007 -0.000012 -0.010457 0.019582 28.103500 40.985400 -0.000006 -0.000013 2.782960 7.079700 -72.214600 11.754300 -0.000000 0.000003 -0.044781 -0.278646 -28.037800 -2.192510 6.469440 -0.000001 -168.061000 12.705500 148.667000 -39.081100 -0.002282 -0.040193 0.038180 -0.080154 23.508200 -40.985400 0.000008 0.000006 6.279770 -1.790540 -45.408000 -11.754300 -0.000006 -0.000006 -0.024723 -0.192171 -24.434600
